<svg xmlns="http://www.w3.org/2000/svg" width="24" height="24" viewBox="0 0 24 24">
    <path transform="rotate(180 12 12)" style="fill:none" d="M0 0h24v24H0z"/>
    <path data-name="합치기 68" d="m-5149.352 20.342-7.778-7.778-7.778 7.778a1 1 0 0 1-1.413 0 1 1 0 0 1 0-1.415l7.777-7.777-7.779-7.779a1 1 0 0 1 0-1.415 1 1 0 0 1 1.415 0l7.779 7.779 7.779-7.779a1 1 0 0 1 1.414 0 1 1 0 0 1 0 1.415l-7.778 7.778 7.778 7.778a1 1 0 0 1 0 1.415 1 1 0 0 1-.708.293 1 1 0 0 1-.708-.293z" transform="translate(5169.131 .836)" style="fill:#fff"/>
</svg>
