<svg xmlns="http://www.w3.org/2000/svg" width="48" height="48" viewBox="0 0 48 48">
    <path data-name="사각형 4080" style="fill:none" d="M0 0h48v48H0z"/>
    <path data-name="패스 13925" d="M0 0h9.439v5.25l-1.721 1.9-3.031-1.394L.428 6.891 0 5.932z" transform="translate(15.25 8.615)" style="fill:#c5d351"/>
    <path data-name="패스 31" d="M943.115 313.762v11.169a1.9 1.9 0 0 1-1.9 1.9h-1.36a.593.593 0 0 1 0-1.186h1.36a.717.717 0 0 0 .716-.717v-12.061a.717.717 0 0 0-.716-.717h-2.2a.717.717 0 0 0-.716.717v11.223a.593.593 0 0 1-1.187 0v-11.223a1.905 1.905 0 0 1 1.9-1.9h2.2a1.907 1.907 0 0 1 1.85 1.46l4.578-2.633a5.674 5.674 0 0 1 2.826-.755h5.378a3.525 3.525 0 0 1 1.041 6.863l-6.776 2.153a.593.593 0 0 1-.359-1.131l6.776-2.153a2.243 2.243 0 0 0 1.569-2.144v-.152a2.253 2.253 0 0 0-2.25-2.25h-5.378a4.484 4.484 0 0 0-2.233.6zm24.7-1.755-5.75 4.5a1.829 1.829 0 0 1-1.122.387h-3.292a.593.593 0 0 0 0 1.187h3.292a3.021 3.021 0 0 0 1.853-.64l5.75-4.5a1.861 1.861 0 0 1 2.988 1.706 1.84 1.84 0 0 1-.734 1.247l-9.9 7.361a4.256 4.256 0 0 1-2.523.835h-13.038a.593.593 0 0 0 0 1.186h13.033a5.454 5.454 0 0 0 3.231-1.069l9.9-7.361a3.044 3.044 0 1 0-3.693-4.84zm-25.292-2.525a.593.593 0 0 0 .593-.593v-13.368a1.318 1.318 0 0 1 1.316-1.315h6.693v5.682a1.616 1.616 0 0 0 2.374 1.427l2.022-1.075a.43.43 0 0 1 .4 0l2.023 1.075a1.616 1.616 0 0 0 2.373-1.427v-3.829a.593.593 0 0 0-1.187 0v3.829a.429.429 0 0 1-.63.379l-2.023-1.075a1.614 1.614 0 0 0-1.516 0l-2.023 1.075a.429.429 0 0 1-.63-.379v-5.682h14.628a1.317 1.317 0 0 1 1.315 1.315v13.367a.593.593 0 0 0 1.187 0v-13.367a2.5 2.5 0 0 0-2.5-2.5h-22.507a2.505 2.505 0 0 0-2.5 2.5v13.368a.593.593 0 0 0 .593.593zm0 0" transform="translate(-936.062 -285.271)" style="fill:#2c2a29;stroke:#2c2a29;stroke-width:.5px"/>
</svg>
