<svg xmlns="http://www.w3.org/2000/svg" width="18" height="20" viewBox="0 0 18 20">
    <path data-name="kakaonavi" d="M74 56.509a1.194 1.194 0 0 1 .55-.945l7.895-4.458a1.267 1.267 0 0 1 1.122 0l7.886 4.458a1.192 1.192 0 0 1 .547.945v8.931a1.193 1.193 0 0 1-.549.945l-7.894 4.458a1.266 1.266 0 0 1-1.122 0l-7.887-4.458A1.193 1.193 0 0 1 74 65.44z" transform="translate(-74 -50.975)" style="fill:#1977d1"/>
    <path data-name="패스 92966" d="M160.832 143.724v1.941s.05.348.475.01l4.186-2.694s.153-.058.153-.386a.481.481 0 0 0-.139-.335c-.148-.148-4.273-2.742-4.273-2.742s-.205-.058-.205.245v2.068h-4.073s-.954-.053-.954.835v4.234l1.206.914s.492.367.492-.071v-3.695s.042-.325.576-.325h2.754" transform="translate(-152 -133.514)" style="fill:#f7e200"/>
</svg>
