<svg xmlns="http://www.w3.org/2000/svg" width="19" height="19" viewBox="0 0 19 19">
    <defs>
        <clipPath id="3mbfa5o21a">
            <path data-name="사각형 250" transform="translate(.373)" style="fill:none" d="M0 0h19v19H0z"/>
        </clipPath>
    </defs>
    <g data-name="그룹 1127" transform="translate(-.373)" style="clip-path:url(#3mbfa5o21a)">
        <path data-name="패스 3943" d="M123.063 88.945H113.3a3.055 3.055 0 0 1-3.051-3.051v-6.508a3.055 3.055 0 0 1 3.051-3.051h9.763a3.055 3.055 0 0 1 3.051 3.051v6.508a3.055 3.055 0 0 1-3.051 3.051m-9.763-11.39a1.833 1.833 0 0 0-1.83 1.83v6.508a1.833 1.833 0 0 0 1.83 1.83h9.763a1.833 1.833 0 0 0 1.83-1.83v-6.507a1.833 1.833 0 0 0-1.83-1.83z" transform="translate(-108.404 -72.878)" style="fill:#0e563c"/>
        <path data-name="패스 3944" d="M118.182 86.064a.611.611 0 0 1-.2-.033l-7.322-2.508a.61.61 0 1 1 .4-1.154l7.13 2.442 7.128-2.31a.61.61 0 1 1 .376 1.16l-7.322 2.373a.594.594 0 0 1-.188.03" transform="translate(-108.404 -75.233)" style="fill:#0e563c"/>
    </g>
</svg>
