<svg xmlns="http://www.w3.org/2000/svg" width="150" height="150" viewBox="0 0 150 150">
    <defs>
        <filter id="un3rtk30ib" x="42" y="6" width="70" height="131" filterUnits="userSpaceOnUse">
            <feOffset dx="2" dy="3"/>
            <feGaussianBlur stdDeviation="2" result="blur"/>
            <feFlood flood-opacity=".263"/>
            <feComposite operator="in" in2="blur"/>
            <feComposite in="SourceGraphic"/>
        </filter>
        <filter id="p77ob31tvc" x="40" y="19" width="74.001" height="38" filterUnits="userSpaceOnUse">
            <feOffset dx="2" dy="3"/>
            <feGaussianBlur stdDeviation="2" result="blur-2"/>
            <feFlood flood-opacity=".263"/>
            <feComposite operator="in" in2="blur-2"/>
            <feComposite in="SourceGraphic"/>
        </filter>
        <filter id="izy6qfs7id" x="49.219" y="50.012" width="50" height="50" filterUnits="userSpaceOnUse">
            <feOffset dy="3"/>
            <feGaussianBlur stdDeviation="3" result="blur-3"/>
            <feFlood flood-opacity=".161"/>
            <feComposite operator="in" in2="blur-3"/>
            <feComposite in="SourceGraphic"/>
        </filter>
        <filter id="ib18o6ejee" x="49.219" y="50.012" width="50" height="50" filterUnits="userSpaceOnUse">
            <feOffset dx="4" dy="5"/>
            <feGaussianBlur stdDeviation="2.5" result="blur-4"/>
            <feFlood flood-color="#efdbc7" flood-opacity=".42" result="color"/>
            <feComposite operator="out" in="SourceGraphic" in2="blur-4"/>
            <feComposite operator="in" in="color"/>
            <feComposite operator="in" in2="SourceGraphic"/>
        </filter>
        <filter id="0mbeu74aeg" x="59.643" y="46.279" width="49.492" height="49.492" filterUnits="userSpaceOnUse">
            <feOffset dx="3" dy="3"/>
            <feGaussianBlur stdDeviation="3" result="blur-5"/>
            <feFlood flood-opacity=".161"/>
            <feComposite operator="in" in2="blur-5"/>
            <feComposite in="SourceGraphic"/>
        </filter>
        <filter id="olhds7qnni" x="59.643" y="46.279" width="49.492" height="49.492" filterUnits="userSpaceOnUse">
            <feOffset dy="3"/>
            <feGaussianBlur stdDeviation="3" result="blur-6"/>
            <feFlood flood-opacity=".161" result="color-2"/>
            <feComposite operator="out" in="SourceGraphic" in2="blur-6"/>
            <feComposite operator="in" in="color-2"/>
            <feComposite operator="in" in2="SourceGraphic"/>
        </filter>
        <linearGradient id="k980ubq01f" x1="1.011" y1=".5" x2=".021" y2=".495" gradientUnits="objectBoundingBox">
            <stop offset="0" stop-color="#e9d7d4"/>
            <stop offset=".217" stop-color="#e5cbc6"/>
            <stop offset=".567" stop-color="#f5ece9"/>
            <stop offset=".818" stop-color="#ffebe6"/>
            <stop offset="1" stop-color="#eadad6"/>
        </linearGradient>
        <linearGradient id="la5hwqxrth" x1="1.133" y1=".485" x2="-.427" y2=".494" gradientUnits="objectBoundingBox">
            <stop offset="0" stop-color="#9b736e"/>
            <stop offset=".266" stop-color="#efd6d2"/>
            <stop offset=".498" stop-color="#f4ebe8"/>
            <stop offset=".792" stop-color="#ffebe6"/>
            <stop offset="1" stop-color="#eadad6"/>
        </linearGradient>
        <clipPath id="dr6qid81ga">
            <path data-name="사각형 7066" transform="translate(-3 -5.844)" style="fill:none" d="M0 0h150v150H0z"/>
        </clipPath>
    </defs>
    <g data-name="그룹 21613" transform="translate(3 5.844)" style="clip-path:url(#dr6qid81ga)">
        <g data-name="그룹 21983" transform="translate(4 -1)">
            <circle data-name="타원 2139" cx="60" cy="60" r="60" transform="translate(8 17.156)" style="fill:#e3e3e3"/>
            <g style="filter:url(#un3rtk30ib)">
                <rect data-name="사각형 7300" width="58" height="119" rx="7" transform="translate(39 4.16)" style="fill:#43457b"/>
            </g>
            <rect data-name="사각형 7304" width="54" height="115" rx="5" transform="translate(41 6.156)" style="fill:#50e08a"/>
            <g style="filter:url(#p77ob31tvc)">
                <g data-name="합치기 220" style="fill:#cccde6" transform="translate(-7 -4.84)">
                    <path d="M-6800.1-6349.944h-.9a.901.901 0 0 1-.9-.9v-10c0-.496.403-.9.9-.9h.9v11.8zm59.1-14h-.9v-11.8h.9c.497 0 .9.404.9.9v10c0 .497-.403.9-.9.9zm-59.1 0h-.9a.901.901 0 0 1-.9-.9v-10c0-.496.403-.9.9-.9h.9v11.8z" style="stroke:none" transform="translate(6846 6397.84)"/>
                    <path d="M-6800.2-6350.044v-11.6h-.8a.8.8 0 0 0-.8.8v10c0 .441.359.8.8.8h.8m59.2-14c.441 0 .8-.358.8-.8v-10c0-.441-.359-.8-.8-.8h-.8v11.6h.8m-59.2 0v-11.6h-.8c-.441 0-.8.359-.8.8v10c0 .442.359.8.8.8h.8m.2 14.2h-1a1 1 0 0 1-1-1v-10c0-.552.448-1 1-1h1v12zm59-14h-1v-12h1c.552 0 1 .449 1 1v10c0 .552-.448 1-1 1zm-59 0h-1c-.552 0-1-.448-1-1v-10c0-.551.448-1 1-1h1v12z" style="fill:#c7c8db;stroke:none" transform="translate(6846 6397.84)"/>
                </g>
            </g>
            <g data-name="그룹 21942" transform="translate(18.274 39.361)">
                <path data-name="패스 92950" d="M.231-19.026q6.174 0 9.093 2.583a8.623 8.623 0 0 1 2.919 6.783 9.48 9.48 0 0 1-1.449 5.1A10.328 10.328 0 0 1 6.321-.777 17.345 17.345 0 0 1-1.2.672 29.046 29.046 0 0 1-7.392 0a19.3 19.3 0 0 1-5.4-1.974l3.36-7.308a16.461 16.461 0 0 0 3.885 1.6 15.3 15.3 0 0 0 3.969.546 5.618 5.618 0 0 0 2.793-.609 1.879 1.879 0 0 0 1.071-1.7 1.692 1.692 0 0 0-.966-1.575 8.027 8.027 0 0 0-3.486-.525h-8.526l1.47-17.85h19.53v7.476H-1.071l-.21 2.9z" transform="translate(12.726 40.795)" style="fill:#2c2a29"/>
                <path data-name="패스 92951" d="M.231-19.026q6.174 0 9.093 2.583a8.623 8.623 0 0 1 2.919 6.783 9.48 9.48 0 0 1-1.449 5.1A10.328 10.328 0 0 1 6.321-.777 17.345 17.345 0 0 1-1.2.672 29.046 29.046 0 0 1-7.392 0a19.3 19.3 0 0 1-5.4-1.974l3.36-7.308a16.461 16.461 0 0 0 3.885 1.6 15.3 15.3 0 0 0 3.969.546 5.618 5.618 0 0 0 2.793-.609 1.879 1.879 0 0 0 1.071-1.7 1.692 1.692 0 0 0-.966-1.575 8.027 8.027 0 0 0-3.486-.525h-8.526l1.47-17.85h19.53v7.476H-1.071l-.21 2.9z" transform="translate(83.726 40.795)" style="fill:#2c2a29"/>
                <g data-type="innerShadowGroup">
                    <g style="filter:url(#izy6qfs7id)" transform="translate(-25.27 -44.21)">
                        <circle data-name="타원 2137" cx="16" cy="16" r="16" transform="translate(58.22 56.01)" style="fill:#ffad15"/>
                    </g>
                    <g style="filter:url(#ib18o6ejee)" transform="translate(-25.27 -44.21)">
                        <circle data-name="타원 2137" cx="16" cy="16" r="16" transform="translate(58.22 56.01)" style="fill:#fff"/>
                    </g>
                </g>
                <rect data-name="사각형 7269" width="7.106" height="18.95" rx="3.553" transform="rotate(-45 46.662 -27.668)" style="opacity:.2"/>
                <path data-name="패스 92947" d="M3.6 0a3.546 3.546 0 0 1 3.5 3.595v19.423a3.553 3.553 0 1 1-7.106 0V3.595A3.632 3.632 0 0 1 3.6 0z" transform="rotate(135 18.017 27.712)" style="fill:url(#k980ubq01f)"/>
                <g data-type="innerShadowGroup">
                    <g style="filter:url(#0mbeu74aeg)" transform="translate(-25.27 -44.21)">
                        <path data-name="패스 92946" d="M3.553 0a3.553 3.553 0 0 1 3.553 3.553v30.32c-.2 3.379-2.948 3.57-2.944 3.557L.793 30.4 0 3.553A3.553 3.553 0 0 1 3.553 0z" transform="rotate(45 -17.053 137.327)" style="fill:url(#la5hwqxrth)"/>
                    </g>
                    <g style="filter:url(#olhds7qnni)" transform="translate(-25.27 -44.21)">
                        <path data-name="패스 92946" d="M3.553 0a3.553 3.553 0 0 1 3.553 3.553v30.32c-.2 3.379-2.948 3.57-2.944 3.557L.793 30.4 0 3.553A3.553 3.553 0 0 1 3.553 0z" transform="rotate(45 -17.053 137.327)" style="fill:#fff"/>
                    </g>
                </g>
            </g>
        </g>
    </g>
</svg>
