<svg xmlns="http://www.w3.org/2000/svg" width="16" height="16" viewBox="0 0 16 16">
    <path style="fill:transparent" d="M0 0h16v16H0z"/>
    <path d="m360.315 1232.059.955-.955a.5.5 0 0 0-.707-.707l-.985.985a5.46 5.46 0 0 0-2.828-1.106v-1.025h.833a.5.5 0 0 0 0-1h-2.667a.5.5 0 1 0 0 1h.833v1.025a5.515 5.515 0 1 0 4.565 1.783zm-4.065 8.191a4.5 4.5 0 1 1 4.5-4.5 4.505 4.505 0 0 1-4.5 4.5zm1.723-3.146a.5.5 0 0 1-.781.625l-1.333-1.667a.5.5 0 0 1-.11-.313v-2.333a.5.5 0 0 1 1 0v2.158z" transform="translate(-348.25 -1226.75)" style="fill:#0e563c"/>
</svg>
