<svg xmlns="http://www.w3.org/2000/svg" width="19.5" height="19.5" viewBox="0 0 19.5 19.5">
    <path d="M412 1229.25h-.25v-.25a.75.75 0 0 0-1.5 0v.25h-6.5v-.25a.75.75 0 0 0-1.5 0v.25H402a4.756 4.756 0 0 0-4.75 4.75v9a4.756 4.756 0 0 0 4.75 4.75h10a4.756 4.756 0 0 0 4.75-4.75v-9a4.756 4.756 0 0 0-4.75-4.75zm-10 1.5h.25v1.25a.75.75 0 0 0 1.5 0v-1.25h6.5v1.25a.75.75 0 0 0 1.5 0v-1.25h.25a3.254 3.254 0 0 1 3.25 3.25v.25h-16.5v-.25a3.254 3.254 0 0 1 3.25-3.25zm10 15.5h-10a3.254 3.254 0 0 1-3.25-3.25v-7.25h16.5v7.25a3.254 3.254 0 0 1-3.25 3.25zm0-7.25a1 1 0 1 1-1-1 1 1 0 0 1 1 1zm-4 0a1 1 0 1 1-1-1 1 1 0 0 1 1 1zm-4 0a1 1 0 1 1-1-1 1 1 0 0 1 1 1zm8 4a1 1 0 1 1-1-1 1 1 0 0 1 1 1zm-4 0a1 1 0 1 1-1-1 1 1 0 0 1 1 1zm-4 0a1 1 0 1 1-1-1 1 1 0 0 1 1 1z" transform="translate(-397.25 -1228.25)" style="fill:#2c2a29"/>
</svg>
