<svg xmlns="http://www.w3.org/2000/svg" width="24" height="24" viewBox="0 0 24 24">
  <g id="Ic_Arrow_Left_24" transform="translate(-7 -66)">
    <rect id="Box" width="24" height="24" transform="translate(31 90) rotate(180)" fill="none"/>
    <path id="합치기_68" data-name="합치기 68" d="M-5149.352,20.342l-7.778-7.778-7.778,7.778a1,1,0,0,1-1.413,0,1,1,0,0,1,0-1.415l7.777-7.777-7.779-7.779a1,1,0,0,1,0-1.415,1,1,0,0,1,1.415,0l7.779,7.779,7.779-7.779a1,1,0,0,1,1.414,0,1,1,0,0,1,0,1.415l-7.778,7.778,7.778,7.778a1,1,0,0,1,0,1.415,1,1,0,0,1-.708.293A1,1,0,0,1-5149.352,20.342Z" transform="translate(5176.131 66.836)" fill="#0f1f2e"/>
  </g>
</svg>
