<svg xmlns="http://www.w3.org/2000/svg" width="20" height="20" viewBox="0 0 20 20">
    <path data-name="합치기 216" d="M-1155.781-5013.968a.75.75 0 0 1 0-1.061l2.721-2.72h-8.189a.751.751 0 0 1-.75-.75.75.75 0 0 1 .01-.125.742.742 0 0 1-.01-.125v-6.5a.75.75 0 0 1 .75-.75.75.75 0 0 1 .749.75v6h7.439l-2.721-2.719a.751.751 0 0 1 0-1.061.75.75 0 0 1 1.062 0l4 4a.751.751 0 0 1 0 1.062l-4 4a.747.747 0 0 1-.53.22.747.747 0 0 1-.531-.221z" transform="translate(1167 5030)" style="fill:#0e563c"/>
    <path style="fill:transparent" d="M0 0h20v20H0z"/>
</svg>
