<svg xmlns="http://www.w3.org/2000/svg" width="22" height="20" viewBox="0 0 22 20">
    <path data-name="패스 92688" d="M461 230a3 3 0 1 1 3-3 3 3 0 0 1-3 3m0-4a1 1 0 1 0 1 1 1 1 0 0 0-1-1" transform="translate(-445 -224)" style="fill:#fff"/>
    <path data-name="패스 92689" d="M459 228h-13a1 1 0 0 1 0-2h13a1 1 0 0 1 0 2" transform="translate(-445 -224)" style="fill:#fff"/>
    <path data-name="패스 92690" d="M466 228h-3a1 1 0 0 1 0-2h3a1 1 0 0 1 0 2" transform="translate(-445 -224)" style="fill:#fff"/>
    <path data-name="패스 92691" d="M456 237a3 3 0 1 1 3-3 3 3 0 0 1-3 3m0-4a1 1 0 1 0 1 1 1 1 0 0 0-1-1" transform="translate(-445 -224)" style="fill:#fff"/>
    <path data-name="패스 92692" d="M454 235h-8a1 1 0 0 1 0-2h8a1 1 0 0 1 0 2" transform="translate(-445 -224)" style="fill:#fff"/>
    <path data-name="패스 92693" d="M466 235h-8a1 1 0 0 1 0-2h8a1 1 0 0 1 0 2" transform="translate(-445 -224)" style="fill:#fff"/>
    <path data-name="패스 92694" d="M451 244a3 3 0 1 1 3-3 3 3 0 0 1-3 3m0-4a1 1 0 1 0 1 1 1 1 0 0 0-1-1" transform="translate(-445 -224)" style="fill:#fff"/>
    <path data-name="패스 92695" d="M466 242h-13a1 1 0 0 1 0-2h13a1 1 0 0 1 0 2" transform="translate(-445 -224)" style="fill:#fff"/>
    <path data-name="패스 92696" d="M449 242h-3a1 1 0 0 1 0-2h3a1 1 0 0 1 0 2" transform="translate(-445 -224)" style="fill:#fff"/>
</svg>
