<svg xmlns="http://www.w3.org/2000/svg" width="20" height="20" viewBox="0 0 20 20">
    <g data-name="ic_ Location">
        <path data-name="사각형 7306" style="fill:none" d="M0 0h20v20H0z"/>
        <path data-name="패스 223" d="M13.575 7.4a2.5 2.5 0 1 0 2.5 2.5 2.5 2.5 0 0 0-2.5-2.5zm0 1.015A1.485 1.485 0 1 1 12.09 9.9a1.486 1.486 0 0 1 1.485-1.485z" transform="translate(-3.075 -1.4)" style="fill-rule:evenodd;fill:#ffffff"/>
        <path data-name="패스 224" d="M10.366 1a6.543 6.543 0 0 0-6.488 6.59 10.286 10.286 0 0 0 2.2 6.073 17.186 17.186 0 0 0 4 3.833.528.528 0 0 0 .574 0 17.186 17.186 0 0 0 4-3.833 10.286 10.286 0 0 0 2.2-6.073A6.543 6.543 0 0 0 10.366 1zm0 1.087a5.463 5.463 0 0 1 5.418 5.5A9.189 9.189 0 0 1 13.8 13.01a16.318 16.318 0 0 1-3.43 3.369 16.318 16.318 0 0 1-3.43-3.369 9.189 9.189 0 0 1-1.992-5.42 5.463 5.463 0 0 1 5.418-5.5z" transform="translate(.122 1)" style="fill:#ffffff;fill-rule:evenodd"/>
    </g>
</svg>
