<svg xmlns="http://www.w3.org/2000/svg" width="24" height="24" viewBox="0 0 24 24">
    <defs>
        <clipPath id="zvkkdquala">
            <path data-name="사각형 189" style="fill:none" d="M0 0h24v24H0z"/>
        </clipPath>
    </defs>
    <g data-name="ic-mypage" style="clip-path:url(#zvkkdquala)">
        <path data-name="패스 3756" d="M230.5 85.835a5.75 5.75 0 1 1 5.75-5.75 5.757 5.757 0 0 1-5.75 5.75m0-10a4.25 4.25 0 1 0 4.25 4.25 4.255 4.255 0 0 0-4.25-4.25" transform="translate(-218.577 -72.086)" style="fill:#fbfbfb"/>
        <path data-name="패스 3757" d="M239.5 93.835a.75.75 0 0 1-.75-.75 7.258 7.258 0 0 0-7.25-7.25h-2a7.258 7.258 0 0 0-7.25 7.25.75.75 0 0 1-1.5 0 8.76 8.76 0 0 1 8.75-8.75h2a8.76 8.76 0 0 1 8.75 8.75.75.75 0 0 1-.75.75" transform="translate(-218.577 -72.086)" style="fill:#fbfbfb"/>
    </g>
</svg>
