<svg xmlns="http://www.w3.org/2000/svg" width="20" height="20" viewBox="0 0 20 20">
    <path data-name="사각형 7163" style="fill:none" d="M0 0h20v20H0z"/>
    <g data-name="패스 8400" style="fill:none">
        <path d="M18.3 8.136a.4.4 0 0 1 .481-.332 4.683 4.683 0 0 1 2.605 1.361 5.028 5.028 0 0 1 1.361 2.606.418.418 0 0 1-.332.481h-.066a.426.426 0 0 1-.415-.349A3.9 3.9 0 0 0 20.8 9.747a4.067 4.067 0 0 0-2.157-1.129.4.4 0 0 1-.343-.482zm6.035 3.975A7.2 7.2 0 0 0 22.34 8.26a7.086 7.086 0 0 0-3.85-1.992.4.4 0 0 1-.332-.481.4.4 0 0 1 .481-.332 7.947 7.947 0 0 1 6.5 6.508.418.418 0 0 1-.332.481h-.066a.4.4 0 0 1-.41-.333z" style="stroke:none" transform="rotate(14.98 22.71 -17.379)"/>
        <path d="M18.55 5.444c.03 0 .06.003.09.01a7.852 7.852 0 0 1 4.28 2.208 7.874 7.874 0 0 1 2.224 4.3c.033.232-.116.448-.332.481h-.066a.397.397 0 0 1-.415-.332A7.204 7.204 0 0 0 22.34 8.26a7.086 7.086 0 0 0-3.85-1.993.395.395 0 0 1-.332-.481c.043-.202.2-.342.393-.342zm.138 2.35c.029 0 .059.004.09.01.995.166 1.89.631 2.604 1.362a5.027 5.027 0 0 1 1.36 2.606c.034.232-.115.448-.33.482h-.067c-.2 0-.382-.15-.415-.35A3.903 3.903 0 0 0 20.8 9.748a4.067 4.067 0 0 0-2.157-1.13.395.395 0 0 1-.348-.48.393.393 0 0 1 .392-.342z" style="fill:#c8d265;stroke:none" transform="rotate(14.98 22.71 -17.379)"/>
    </g>
    <g data-name="패스 8399" style="fill:none">
        <path d="M18.961 18.165a1.281 1.281 0 0 0 0-1.994l-1.739-1.608a1.507 1.507 0 0 0-1.07-.448 1.567 1.567 0 0 0-1.07.448l-1 .927c-.084-.046-.167-.077-.251-.124-.117-.046-.217-.108-.318-.155a10.392 10.392 0 0 1-2.592-2.18 5.269 5.269 0 0 1-.853-1.252c.251-.216.5-.448.736-.665l.268-.247a1.4 1.4 0 0 0 .5-1 1.368 1.368 0 0 0-.5-1l-.853-.8c-.1-.093-.2-.185-.284-.278a9.678 9.678 0 0 0-.585-.541A1.549 1.549 0 0 0 8.291 6.8a1.622 1.622 0 0 0-1.07.433l-1.087 1a2.054 2.054 0 0 0-.686 1.345 5.029 5.029 0 0 0 .4 2.164 12.349 12.349 0 0 0 2.408 3.725 14.787 14.787 0 0 0 4.934 3.571 7.9 7.9 0 0 0 2.776.757h.2a2.447 2.447 0 0 0 1.806-.727l.017-.015a5.656 5.656 0 0 1 .552-.526 3.049 3.049 0 0 0 .42-.362z" style="stroke:none" transform="rotate(14.98 18.304 -1.627)"/>
        <path d="M16.168 18.804c.454 0 .811-.14 1.09-.426l.022-.021c.174-.19.371-.376.616-.584l.03-.025.033-.024c.086-.062.173-.14.28-.252l.034-.032c.105-.1.165-.202.164-.279 0-.071-.057-.165-.155-.255l-1.759-1.627a.504.504 0 0 0-.372-.164c-.129 0-.26.062-.391.183l-1.535 1.418-.633-.35c-.01-.006-.037-.019-.06-.029-.038-.018-.083-.038-.133-.064-.094-.04-.174-.082-.235-.114-.025-.014-.05-.027-.075-.038l-.041-.02-.04-.022c-1.017-.588-1.947-1.368-2.842-2.385l-.006-.006c-.475-.55-.785-1.01-1.006-1.49l-.312-.683.568-.491c.238-.205.478-.427.71-.642l.268-.247c.148-.136.18-.244.18-.27 0-.065-.067-.167-.18-.271l-.007-.007-.85-.8a5.576 5.576 0 0 1-.326-.32A8.368 8.368 0 0 0 8.698 8l-.032-.03a.57.57 0 0 0-.375-.166c-.13 0-.266.06-.403.177l-1.076.995c-.223.206-.34.428-.368.697-.046.61.144 1.209.337 1.715.458 1.155 1.163 2.24 2.219 3.417a13.831 13.831 0 0 0 4.602 3.33c.575.26 1.445.61 2.395.669h.17m0 1h-.2c-1.087-.062-2.057-.433-2.776-.758a14.787 14.787 0 0 1-4.934-3.57C7.12 14.208 6.351 13.018 5.85 11.75c-.2-.525-.468-1.314-.401-2.164.05-.525.284-.974.686-1.345L7.22 7.237c.317-.279.685-.433 1.07-.433s.752.154 1.053.433c.201.17.402.355.586.54.083.093.184.186.284.279l.853.804c.335.309.502.649.502 1.004 0 .356-.184.711-.502 1.005l-.268.247c-.234.217-.485.449-.735.665.184.402.451.789.853 1.252.802.912 1.655 1.639 2.592 2.18.1.046.2.108.317.154.084.047.168.078.251.124l1.004-.927c.318-.294.685-.449 1.07-.449.401 0 .77.155 1.07.449l1.74 1.607c.635.588.635 1.391 0 1.994a3.05 3.05 0 0 1-.418.371c-.201.17-.385.34-.552.526l-.017.015c-.468.48-1.087.727-1.806.727z" style="fill:#0f1f2e;stroke:none" transform="rotate(14.98 18.304 -1.627)"/>
    </g>
</svg>
