<svg xmlns="http://www.w3.org/2000/svg" width="32" height="32" viewBox="0 0 32 32">
    <path style="fill:transparent" d="M0 0h32v32H0z"/>
    <path d="M662.25 1088.25h-4.75a1.665 1.665 0 0 1-1.581-1.139l-.421-1.265a2.33 2.33 0 0 0-2.213-1.595h-6.075a2.329 2.329 0 0 0-2.213 1.6l-.421 1.264a1.665 1.665 0 0 1-1.581 1.14h-4.745a1 1 0 0 0 0 2h1.731l1.019 15.329a5.012 5.012 0 0 0 4.989 4.667h8.516a5.014 5.014 0 0 0 4.989-4.667l1.023-15.333h1.729a1 1 0 0 0 0-2zm-15.356-1.772a.333.333 0 0 1 .316-.228h6.079a.333.333 0 0 1 .316.227l.421 1.265a3.63 3.63 0 0 0 .215.507h-7.984a3.652 3.652 0 0 0 .215-.508zm10.606 18.972a3.006 3.006 0 0 1-2.993 2.8h-8.516a3.007 3.007 0 0 1-2.993-2.8l-1.013-15.2h1.009a3.687 3.687 0 0 0 .423-.033.987.987 0 0 0 .165.033h13.333a.965.965 0 0 0 .165-.033 3.687 3.687 0 0 0 .423.033h1.009zm-3.584-9.533v6.667a1 1 0 0 1-2 0v-6.667a1 1 0 0 1 2 0zm-5.333 0v6.667a1 1 0 0 1-2 0v-6.667a1 1 0 0 1 2 0z" transform="translate(-634.25 -1081.25)" style="fill:#fefefe"/>
</svg>
