<svg xmlns="http://www.w3.org/2000/svg" xmlns:xlink="http://www.w3.org/1999/xlink" width="375" height="84.5" viewBox="0 0 375 84.5">
  <defs>
    <filter id="Background" x="0" y="0" width="375" height="84.5" filterUnits="userSpaceOnUse">
      <feOffset dy="-0.5" input="SourceAlpha"/>
      <feGaussianBlur result="blur"/>
      <feFlood flood-opacity="0.122"/>
      <feComposite operator="in" in2="blur"/>
      <feComposite in="SourceGraphic"/>
    </filter>
  </defs>
  <g id="Action_Bar" data-name="Action Bar" transform="translate(0 -691.5)">
    <g transform="matrix(1, 0, 0, 1, 0, 691.5)" filter="url(#Background)">
      <rect id="Background-2" data-name="Background" width="375" height="84" transform="translate(0 0.5)" fill="#fff" opacity="0.9"/>
    </g>
    <text id="e-SHOP" transform="translate(22 749)" fill="#999" font-size="10" font-family="AppleSDGothicNeo-Regular, Apple SD Gothic Neo"><tspan x="0" y="0">e-SHOP</tspan></text>
    <text id="HOME" transform="translate(189 749)" fill="#999" font-size="10" font-family="AppleSDGothicNeo-Regular, Apple SD Gothic Neo"><tspan x="-13" y="0">HOME</tspan></text>
    <text id="STORE" transform="translate(113 749)" fill="#999" font-size="10" font-family="AppleSDGothicNeo-Regular, Apple SD Gothic Neo"><tspan x="-14" y="0">STORE</tspan></text>
    <text id="LIFE" transform="translate(264 749)" fill="#999" font-size="10" font-family="AppleSDGothicNeo-Regular, Apple SD Gothic Neo"><tspan x="-9" y="0">LIFE</tspan></text>
    <text id="MY" transform="translate(339 749)" fill="#999" font-size="10" font-family="AppleSDGothicNeo-Regular, Apple SD Gothic Neo"><tspan x="-6" y="0">MY</tspan></text>
    <g id="home-2" data-name="home" transform="translate(153 -5)">
      <rect id="사각형_22450" data-name="사각형 22450" width="20" height="20" transform="translate(26 717)" fill="#999" opacity="0"/>
      <path id="패스_4327" data-name="패스 4327" d="M22.615,7.292,13.385,2.105a.8.8,0,0,0-.769,0L3.385,7.292A.737.737,0,0,0,3,7.929V21.265a.755.755,0,0,0,.769.741H9.692a.755.755,0,0,0,.769-.741V15.079h5.077v6.186a.755.755,0,0,0,.769.741h5.923A.755.755,0,0,0,23,21.265V7.929a.737.737,0,0,0-.385-.637ZM21.462,20.524H17.077V14.338a.755.755,0,0,0-.769-.741H9.692a.755.755,0,0,0-.769.741v6.186H4.538V8.351L13,3.6l8.462,4.749Z" transform="translate(23 714.994)" fill="#999"/>
    </g>
    <g id="user" transform="translate(328 712)">
      <rect id="Rectangle_4117" data-name="Rectangle 4117" width="20" height="20" transform="translate(0)" fill="#fff" opacity="0"/>
      <path id="Union" d="M19.232,20H.77A.77.77,0,0,1,0,19.232v-3.5a1.484,1.484,0,0,1,.827-1.342,21.261,21.261,0,0,1,18.348,0A1.484,1.484,0,0,1,20,15.731v3.5A.769.769,0,0,1,19.232,20ZM10,13.847a19.582,19.582,0,0,0-8.462,1.908v2.707H18.462V15.755A19.584,19.584,0,0,0,10,13.847Zm0-3.077a5.385,5.385,0,1,1,5.385-5.385A5.391,5.391,0,0,1,10,10.77Zm0-9.232a3.847,3.847,0,1,0,3.847,3.847A3.851,3.851,0,0,0,10,1.538Z" transform="translate(0 0)" fill="#999" stroke="#fff" stroke-width="0.3"/>
    </g>
    <path id="패스_4478" data-name="패스 4478" d="M19.084,7.2c1.177-2.674,1.265-4.989,0-6.251s-3.573-1.176-6.245,0A9.514,9.514,0,0,0,.928,12.86c-.07.158-.138.314-.2.471-1.035,2.57-.965,4.627.2,5.79a3.463,3.463,0,0,0,2.536.913,9.436,9.436,0,0,0,3.711-.919,9.077,9.077,0,0,0,1.239.3,9.3,9.3,0,0,0,1.6.136A9.515,9.515,0,0,0,19.38,8.438,9.37,9.37,0,0,0,19.084,7.2ZM7.133,17.833a12.878,12.878,0,0,1-1.533.629c-1.747.575-3.124.509-3.823-.19s-.767-2.079-.19-3.827a9.339,9.339,0,0,0,.566.943A9.507,9.507,0,0,0,4.659,17.9c.222-.052.452-.116.691-.194.258-.086.526-.186.8-.3A8.311,8.311,0,0,1,11.17,1.8a8.17,8.17,0,0,1,1.729.439,8.361,8.361,0,0,1,4.465,3.936c.114-.274.216-.543.3-.807.078-.238.144-.469.194-.691a9.658,9.658,0,0,0-3.433-3.066,6.861,6.861,0,0,1,2.106-.391,2.332,2.332,0,0,1,1.7.575c.7.7.765,2.077.19,3.825A12.416,12.416,0,0,1,17.8,7.156a23.4,23.4,0,0,1-4.537,6.135A23.406,23.406,0,0,1,7.133,17.833Zm11.178-7.567a8.323,8.323,0,0,1-8.068,8.078l-.236,0a8.262,8.262,0,0,1-1.164-.082A25.974,25.974,0,0,0,14.11,14.14a26,26,0,0,0,4.121-5.27,8.273,8.273,0,0,1,.082,1.164C18.313,10.112,18.311,10.19,18.311,10.267Z" transform="translate(253 711.965)" fill="#999"/>
    <g id="shop" transform="translate(28 712)">
      <rect id="shop_Background_" data-name="shop (Background)" width="20" height="20" transform="translate(0 0)" fill="none"/>
      <path id="shop-2" data-name="shop" d="M15.313,20H-1.313A.7.7,0,0,1-2,19.285L-.933,5.317A.7.7,0,0,1-.246,4.6H3.568V3.571A3.508,3.508,0,0,1,7,0a3.507,3.507,0,0,1,3.431,3.571V4.6h3.814a.7.7,0,0,1,.686.714L16,19.285A.7.7,0,0,1,15.313,20ZM.243,6.032h0l-.87,12.539H14.627L13.8,6.032H10.432V8.889H9.059V6.032H4.941V8.889H3.568V6.032H.243ZM7,1.429A2.1,2.1,0,0,0,4.941,3.571V4.6H9.059V3.571A2.1,2.1,0,0,0,7,1.429Z" transform="translate(3 0)" fill="#999"/>
    </g>
    <g id="view-module" transform="translate(104 711)">
      <g id="사각형_22839" data-name="사각형 22839" fill="none" stroke="#999" stroke-width="1">
        <rect width="18" height="23" stroke="none"/>
        <rect x="0.5" y="0.5" width="17" height="22" fill="none"/>
      </g>
      <g id="사각형_22840" data-name="사각형 22840" transform="translate(4 6)" fill="none" stroke="#999" stroke-width="1">
        <rect width="4" height="4" stroke="none"/>
        <rect x="0.5" y="0.5" width="3" height="3" fill="none"/>
      </g>
      <g id="사각형_22841" data-name="사각형 22841" transform="translate(4 12)" fill="none" stroke="#999" stroke-width="1">
        <rect width="4" height="4" stroke="none"/>
        <rect x="0.5" y="0.5" width="3" height="3" fill="none"/>
      </g>
      <g id="사각형_22842" data-name="사각형 22842" transform="translate(10 6)" fill="none" stroke="#999" stroke-width="1">
        <rect width="4" height="4" stroke="none"/>
        <rect x="0.5" y="0.5" width="3" height="3" fill="none"/>
      </g>
      <g id="사각형_22843" data-name="사각형 22843" transform="translate(10 12)" fill="none" stroke="#999" stroke-width="1">
        <rect width="4" height="4" stroke="none"/>
        <rect x="0.5" y="0.5" width="3" height="3" fill="none"/>
      </g>
      <g id="사각형_22844" data-name="사각형 22844" transform="translate(7 18)" fill="none" stroke="#999" stroke-width="1">
        <rect width="4" height="5" stroke="none"/>
        <rect x="0.5" y="0.5" width="3" height="4" fill="none"/>
      </g>
      <g id="사각형_22845" data-name="사각형 22845" fill="none" stroke="#999" stroke-width="1">
        <rect width="18" height="4" stroke="none"/>
        <rect x="0.5" y="0.5" width="17" height="3" fill="none"/>
      </g>
    </g>
  </g>
</svg>
